<svg width="1080" height="840" viewBox="0 0 1080 840" fill="none" xmlns="http://www.w3.org/2000/svg">
<path d="M136.895 605.222C135.751 605.222 134.678 605.382 133.702 605.699C132.795 605.991 132.018 606.391 131.399 606.884C130.826 607.334 130.394 607.842 130.07 608.444C129.804 608.934 129.682 609.42 129.682 609.978C129.682 610.448 129.776 610.834 129.982 611.194C130.274 611.707 130.674 612.154 131.21 612.56C131.787 612.996 132.534 613.344 133.434 613.6C135.512 614.188 138.27 614.191 140.298 613.607H140.299C141.183 613.351 141.923 613 142.503 612.56C143.04 612.154 143.443 611.707 143.731 611.199C143.938 610.836 144.035 610.446 144.035 609.978C144.035 609.423 143.911 608.934 143.647 608.444C143.323 607.844 142.891 607.336 142.326 606.89C141.692 606.388 140.922 605.986 140.022 605.687C139.086 605.379 138.031 605.222 136.895 605.222ZM136.895 622.715C134.843 622.715 132.884 622.452 131.072 621.942C129.124 621.391 127.408 620.556 125.972 619.464C124.506 618.352 123.318 617.011 122.447 615.478C121.496 613.81 121.014 611.956 121.014 609.978C121.014 607.983 121.494 606.083 122.44 604.33C123.327 602.686 124.535 601.254 126.03 600.078C127.446 598.955 129.131 598.068 131.027 597.452C134.723 596.255 139.103 596.262 142.742 597.459C144.614 598.078 146.279 598.96 147.7 600.087C149.186 601.26 150.394 602.691 151.278 604.332C152.224 606.09 152.703 607.988 152.703 609.978C152.703 611.951 152.22 613.798 151.271 615.475C150.402 617.004 149.216 618.347 147.744 619.464C146.308 620.554 144.612 621.384 142.7 621.935C140.908 622.452 138.954 622.715 136.895 622.715Z" fill="#4C82C3"/>
<path d="M184.833 594.205C183.369 594.205 181.992 594.411 180.736 594.817C179.544 595.205 178.52 595.734 177.697 596.387C176.914 597.002 176.322 597.702 175.877 598.526C175.496 599.237 175.309 599.977 175.309 600.779C175.309 601.499 175.46 602.103 175.786 602.675C176.192 603.386 176.749 604.009 177.49 604.571C178.262 605.157 179.256 605.625 180.441 605.959C183.098 606.714 186.576 606.717 189.153 605.969L189.161 605.966C190.321 605.63 191.306 605.162 192.085 604.571C192.826 604.005 193.385 603.386 193.789 602.675C194.113 602.103 194.266 601.499 194.266 600.779C194.266 599.973 194.08 599.234 193.696 598.523C193.254 597.702 192.662 597.006 191.885 596.393C191.049 595.731 190.033 595.199 188.856 594.807C187.644 594.407 186.289 594.205 184.833 594.205ZM184.833 615.197C182.446 615.197 180.173 614.895 178.077 614.298C175.848 613.67 173.884 612.719 172.246 611.473C170.577 610.205 169.232 608.683 168.248 606.954C167.182 605.077 166.641 602.999 166.641 600.779C166.641 598.542 167.18 596.402 168.244 594.421C169.252 592.549 170.625 590.923 172.325 589.585C173.948 588.298 175.878 587.285 178.057 586.574C182.317 585.193 187.397 585.198 191.58 586.581C193.728 587.291 195.636 588.303 197.26 589.59C198.957 590.93 200.328 592.555 201.33 594.417C202.393 596.397 202.933 598.535 202.933 600.779C202.933 602.995 202.393 605.07 201.329 606.951C200.345 608.681 199.001 610.202 197.329 611.473C195.694 612.713 193.754 613.661 191.564 614.293C189.493 614.893 187.229 615.197 184.833 615.197Z" fill="#4C82C3"/>
<path d="M238.168 582.838C236.323 582.838 234.579 583.099 232.988 583.616C231.455 584.115 230.135 584.799 229.064 585.644C228.036 586.458 227.251 587.384 226.66 588.48C226.131 589.464 225.875 590.483 225.875 591.598C225.875 592.602 226.098 593.484 226.558 594.294C227.104 595.255 227.847 596.086 228.835 596.836C229.848 597.606 231.138 598.216 232.664 598.647C235.994 599.595 240.359 599.595 243.594 598.656L243.599 598.652C245.095 598.222 246.375 597.61 247.402 596.831C248.384 596.083 249.13 595.251 249.67 594.298C250.131 593.484 250.356 592.602 250.356 591.598C250.356 590.483 250.099 589.464 249.57 588.48C248.982 587.387 248.194 586.458 247.163 585.642C246.091 584.795 244.78 584.108 243.27 583.607C241.727 583.096 240.007 582.838 238.168 582.838ZM238.168 608.028C235.376 608.028 232.73 607.678 230.298 606.986C227.731 606.259 225.472 605.166 223.594 603.74C221.672 602.282 220.135 600.543 219.019 598.572C217.819 596.462 217.207 594.11 217.207 591.598C217.207 589.05 217.819 586.618 219.027 584.374C220.174 582.243 221.744 580.382 223.691 578.842C225.566 577.362 227.791 576.195 230.306 575.374C235.239 573.77 241.144 573.776 245.998 575.379C248.474 576.202 250.674 577.368 252.54 578.842C254.491 580.387 256.059 582.247 257.203 584.374C258.411 586.618 259.024 589.05 259.024 591.598C259.024 594.1 258.415 596.446 257.212 598.572C256.096 600.54 254.559 602.276 252.643 603.735C250.756 605.163 248.524 606.256 246 606.982C243.602 607.678 240.966 608.028 238.168 608.028Z" fill="#4C82C3"/>
<path d="M267.686 441.994C266.381 443.293 264.397 443.626 262.741 442.822C261.083 442.022 260.114 440.258 260.323 438.43C260.897 433.418 259.599 430.002 256.359 427.982C250.369 424.261 238.157 425.707 229.69 431.147C226.649 433.105 221.65 437.177 222.339 442.493C222.646 444.866 220.971 447.039 218.598 447.347C216.225 447.646 214.05 445.983 213.742 443.607C211.613 427.149 202.762 421.981 195.711 420.543C184.071 418.166 170.183 424.43 164.097 434.798C158.93 443.594 160.594 453.687 168.781 463.214C169.774 464.371 170.087 465.966 169.605 467.413C169.123 468.859 167.915 469.946 166.426 470.273C135.806 477.013 126.202 491.425 127.425 502.663C128.869 515.947 145.995 530.07 174.89 530.07C176.047 530.07 177.157 530.531 177.971 531.357C178.785 532.178 179.235 533.293 179.223 534.45C179.159 540.234 181.063 544.771 183.69 548.285H313.542C332.379 548.285 347.791 532.873 347.791 514.035V436.958C327.19 420.115 293.538 416.265 267.686 441.994Z" fill="#4C82C3"/>
<path d="M118.807 503.598C117.279 489.55 127.013 472.094 158.135 463.405C151.175 452.477 150.56 440.729 156.621 430.408C164.601 416.824 182.164 408.929 197.443 412.05C207.048 414.008 214.383 420.062 218.641 429.229C220.356 427.284 222.485 425.473 225.001 423.857C234.811 417.55 250.736 414.273 260.939 420.622C264.495 422.838 266.944 426.025 268.181 429.942C294.385 409.002 325.864 411.7 347.791 426.212V374.992C347.791 356.154 332.379 340.741 313.541 340.741H120.161C101.324 340.741 85.9121 356.154 85.9121 374.992V514.034C85.9121 532.872 101.324 548.284 120.161 548.284H173.6C172.168 545.277 171.177 542.07 170.779 538.652C138.996 537.3 120.629 520.352 118.807 503.598Z" fill="#4C82C3"/>
<path d="M363.726 493.037C380.133 472.309 372.701 448.676 357.345 433.849C354.436 431.04 351.226 428.485 347.79 426.212V436.959C349.014 437.959 350.198 438.997 351.325 440.085C363.474 451.819 371.628 472.02 354.621 490.344C353.821 491.205 353.405 492.357 353.47 493.529C353.534 494.703 354.073 495.801 354.961 496.571C367.8 507.683 368.534 529.14 356.668 546.485C341.064 569.293 304.297 583.035 247.898 553.192C247.261 552.857 246.565 552.691 245.872 552.691C244.944 552.691 244.018 552.989 243.249 553.573C230.634 563.159 209.616 564.605 194.361 556.935C191.216 555.352 186.908 552.588 183.69 548.284H173.6C176.812 555.032 182.494 560.668 190.468 564.676C207.596 573.292 231.001 572.08 246.21 562.088C269.642 574.113 290.009 579.02 307.186 579.02C334.086 579.017 353.149 566.979 363.822 551.379C377.202 531.821 376.921 507.575 363.726 493.037Z" fill="#4C82C3"/>
<path d="M510.709 404.798C512.109 405.398 513.153 406.728 513.34 408.242L517.992 446.189H534.388V401.55C534.388 400.216 535.009 398.956 536.069 398.144L543.757 392.256L520.944 385.48C519.221 384.969 518 383.437 517.884 381.645C517.769 379.85 518.783 378.173 520.427 377.446L542.132 367.821L523.1 362.246C521.68 361.829 520.573 360.712 520.175 359.282C519.776 357.857 520.14 356.325 521.141 355.232L534.388 340.742H466.779C467.86 368.718 484.831 393.661 510.709 404.798Z" fill="#FDBA11"/>
<path d="M555.785 362.878C557.511 363.386 558.739 364.915 558.859 366.712C558.979 368.507 557.963 370.188 556.317 370.918L534.55 380.571L554.273 386.428C555.818 386.887 556.979 388.176 557.271 389.762C557.563 391.35 556.942 392.966 555.662 393.948L542.969 403.668V446.188H560.903L565.511 408.356C565.697 406.839 566.681 405.442 568.087 404.842C594.029 393.722 611.037 368.763 612.119 340.742H546.017L532.115 355.946L555.785 362.878Z" fill="#FDBA11"/>
<path d="M565.259 473.138H513.638C511.268 473.138 509.347 471.217 509.347 468.847C509.347 466.477 511.268 464.557 513.638 464.557H565.259C567.63 464.557 569.55 466.477 569.55 468.847C569.55 471.217 567.63 473.138 565.259 473.138ZM565.259 489.729H513.638C511.268 489.729 509.347 487.809 509.347 485.438C509.347 483.067 511.268 481.147 513.638 481.147H565.259C567.63 481.147 569.55 483.067 569.55 485.438C569.55 487.809 567.63 489.729 565.259 489.729ZM565.259 506.319H513.638C511.268 506.319 509.347 504.399 509.347 502.029C509.347 499.659 511.268 497.738 513.638 497.738H565.259C567.63 497.738 569.55 499.659 569.55 502.029C569.55 504.399 567.63 506.319 565.259 506.319ZM548.671 522.91H530.227C527.858 522.91 525.936 520.99 525.936 518.619C525.936 516.25 527.858 514.329 530.227 514.329H548.671C551.042 514.329 552.962 516.25 552.962 518.619C552.962 520.99 551.042 522.91 548.671 522.91ZM636.462 340.742H620.704C619.646 371.374 601.564 398.775 573.748 411.709L568.962 451.001C568.698 453.153 566.872 454.771 564.702 454.771H514.195C512.028 454.771 510.2 453.155 509.936 451.003L505.116 411.687C477.272 398.674 459.251 371.305 458.195 340.742H443.083C424.246 340.742 408.832 356.154 408.832 374.991V514.035C408.832 532.873 424.246 548.285 443.083 548.285H636.462C655.299 548.285 670.711 532.873 670.711 514.035V374.991C670.711 356.154 655.299 340.742 636.462 340.742Z" fill="#FDBA11"/>
<path d="M90.6268 642.534H102.967V714.028H90.6268V642.534ZM90.6268 642.534H102.967V714.028H90.6268V642.534ZM96.6628 629.994C95.1868 629.994 93.8122 629.815 92.5388 629.458C91.2642 629.102 90.1788 628.584 89.2868 627.914C88.3908 627.246 87.6868 626.463 87.1735 625.567C86.6588 624.672 86.4028 623.69 86.4028 622.616C86.4028 621.499 86.6695 620.448 87.2068 619.464C87.7428 618.482 88.4695 617.632 89.3868 616.915C90.3028 616.202 91.3868 615.64 92.6402 615.238C93.8895 614.838 95.2322 614.634 96.6628 614.634C98.0948 614.634 99.4242 614.838 100.653 615.238C101.884 615.64 102.956 616.202 103.873 616.915C104.789 617.632 105.516 618.482 106.052 619.464C106.589 620.448 106.857 621.499 106.857 622.616C106.857 623.69 106.599 624.672 106.087 625.567C105.571 626.463 104.868 627.246 103.973 627.914C103.079 628.584 102.005 629.102 100.753 629.458C99.5028 629.815 98.1388 629.994 96.6628 629.994Z" fill="#4C82C3"/>
<path d="M177.747 666.343H166.01C165.295 661.897 163.663 658.204 161.115 655.261C158.566 652.323 154.475 650.851 148.842 650.851C141.15 650.851 135.651 654.612 132.345 662.132C130.197 667.013 129.125 673.035 129.125 680.195C129.125 687.403 130.643 693.469 133.685 698.395C136.725 703.316 141.509 705.779 148.038 705.779C153.045 705.779 157.011 704.249 159.942 701.184C162.87 698.124 164.893 693.932 166.01 688.609H177.747C176.407 698.133 173.053 705.099 167.689 709.5C162.323 713.905 155.459 716.105 147.099 716.105C137.709 716.105 130.219 712.677 124.63 705.813C119.041 698.949 116.247 690.376 116.247 680.092C116.247 667.484 119.31 657.668 125.435 650.651C131.561 643.629 139.362 640.12 148.842 640.12C156.934 640.12 163.518 642.088 168.593 646.021C173.667 649.959 176.719 656.729 177.747 666.343Z" fill="#4C82C3"/>
<path d="M239.785 677.679C239.785 671.954 238.957 667.038 237.303 662.923C234.173 655.008 228.451 651.054 220.134 651.054C211.773 651.054 206.05 655.234 202.965 663.594C201.31 668.066 200.483 673.746 200.483 680.628C200.483 686.175 201.31 690.89 202.965 694.78C206.094 702.202 211.817 705.914 220.134 705.914C225.769 705.914 230.45 703.556 234.185 698.838C237.918 694.122 239.785 687.067 239.785 677.679ZM188.881 642.534H200.618V652.058C203.033 648.794 205.67 646.267 208.531 644.479C212.599 641.798 217.383 640.456 222.885 640.456C231.022 640.456 237.929 643.574 243.607 649.81C249.285 656.05 252.125 664.958 252.125 676.538C252.125 692.186 248.034 703.366 239.853 710.07C234.665 714.318 228.629 716.442 221.745 716.442C216.333 716.442 211.795 715.256 208.13 712.89C205.983 711.547 203.591 709.244 200.953 705.979V742.667H188.881V642.534Z" fill="#4C82C3"/>
<path d="M322.813 666.343H311.075C310.36 661.897 308.729 658.204 306.181 655.261C303.631 652.323 299.54 650.851 293.907 650.851C286.215 650.851 280.717 654.612 277.41 662.132C275.262 667.013 274.19 673.035 274.19 680.195C274.19 687.403 275.708 693.469 278.75 698.395C281.79 703.316 286.574 705.779 293.103 705.779C298.11 705.779 302.077 704.249 305.007 701.184C307.935 698.124 309.958 693.932 311.075 688.609H322.813C321.473 698.133 318.118 705.099 312.754 709.5C307.389 713.905 300.525 716.105 292.165 716.105C282.774 716.105 275.284 712.677 269.695 705.813C264.106 698.949 261.312 690.376 261.312 680.092C261.312 667.484 264.375 657.668 270.5 650.651C276.626 643.629 284.427 640.12 293.907 640.12C301.999 640.12 308.583 642.088 313.658 646.021C318.733 649.959 321.785 656.729 322.813 666.343Z" fill="#4C82C3"/>
<path d="M344.744 714.364C343.268 714.364 341.893 714.185 340.62 713.828C339.345 713.472 338.26 712.954 337.368 712.282C336.472 711.614 335.766 710.833 335.254 709.937C334.74 709.041 334.482 708.06 334.482 706.985C334.482 705.868 334.75 704.818 335.288 703.833C335.824 702.852 336.55 702.002 337.468 701.285C338.382 700.57 339.468 700.01 340.72 699.608C341.97 699.208 343.313 699.004 344.744 699.004C346.173 699.004 347.505 699.208 348.734 699.608C349.964 700.01 351.037 700.57 351.954 701.285C352.87 702.002 353.596 702.852 354.133 703.833C354.669 704.818 354.938 705.868 354.938 706.985C354.938 708.06 354.68 709.041 354.168 709.937C353.652 710.833 352.948 711.614 352.054 712.282C351.158 712.954 350.086 713.472 348.834 713.828C347.584 714.185 346.22 714.364 344.744 714.364Z" fill="#4C82C3"/>
<path d="M378.68 620.27C381.496 616.154 386.929 614.098 394.977 614.098C395.737 614.098 396.518 614.123 397.324 614.166C398.129 614.208 399.044 614.276 400.074 614.366V625.364C398.821 625.278 397.916 625.222 397.357 625.198C396.797 625.176 396.273 625.164 395.781 625.164C392.114 625.164 389.924 626.115 389.208 628.014C388.493 629.916 388.136 634.755 388.136 642.534H400.074V652.056H388.001V714.028H376.064V652.056H366.07V642.534H376.064V631.267C376.242 626.259 377.113 622.594 378.68 620.27Z" fill="#4C82C3"/>
<path d="M460.637 676.941C460.637 670.234 459.561 664.779 457.412 660.574C454.009 653.959 448.141 650.651 439.812 650.651C432.422 650.651 427.049 653.467 423.689 659.101C420.332 664.733 418.652 671.533 418.652 679.489C418.652 687.135 420.332 693.507 423.689 698.605C427.049 703.702 432.378 706.25 439.678 706.25C447.693 706.25 453.192 703.221 456.169 697.161C459.148 691.103 460.637 684.362 460.637 676.941ZM473.245 676.605C473.245 688.185 470.429 697.754 464.794 705.309C459.161 712.865 450.42 716.645 438.572 716.645C428.689 716.645 420.842 713.302 415.03 706.617C409.218 699.934 406.312 690.958 406.312 679.69C406.312 667.617 409.374 658.005 415.5 650.851C421.625 643.698 429.853 640.121 440.181 640.121C449.436 640.121 457.26 643.205 463.656 649.377C470.048 655.545 473.245 664.622 473.245 676.605Z" fill="#4C82C3"/>
<path d="M498.982 642.198V689.834C498.982 693.497 499.562 696.489 500.726 698.81C502.873 703.098 506.873 705.243 512.73 705.243C521.137 705.243 526.858 701.491 529.899 693.987C531.554 689.967 532.382 684.451 532.382 677.439V642.198H544.453V714.029H533.051L533.186 703.43C531.621 706.161 529.675 708.463 527.351 710.341C522.746 714.095 517.157 715.974 510.585 715.974C500.346 715.974 493.371 712.554 489.661 705.711C487.649 702.045 486.642 697.151 486.642 691.026V642.198H498.982Z" fill="#4C82C3"/>
<path d="M562.612 642.198H574.081V652.393C577.482 648.191 581.086 645.174 584.894 643.339C588.698 641.506 592.93 640.591 597.588 640.591C607.794 640.591 614.693 644.143 618.273 651.254C620.242 655.145 621.228 660.71 621.228 667.953V714.029H608.888V668.759C608.888 664.375 608.238 660.845 606.942 658.161C604.797 653.691 600.906 651.454 595.273 651.454C592.41 651.454 590.065 651.746 588.23 652.327C584.921 653.31 582.016 655.277 579.513 658.229C577.501 660.599 576.192 663.046 575.589 665.573C574.985 668.101 574.684 671.707 574.684 676.405V714.029H562.612V642.198Z" fill="#4C82C3"/>
<path d="M667.236 706.047C672.825 706.047 677.418 703.646 681.02 698.838C684.617 694.034 686.418 687.135 686.418 678.147C686.418 669.074 684.562 662.354 680.85 657.995C677.138 653.634 672.557 651.454 667.104 651.454C661.021 651.454 656.09 653.782 652.313 658.43C648.533 663.08 646.646 669.923 646.646 678.954C646.646 686.643 648.278 693.082 651.544 698.268C654.806 703.455 660.036 706.047 667.236 706.047ZM678.637 644.411C680.782 645.754 683.22 648.102 685.948 651.454V615.172H697.552V714.028H686.686V704.038C683.869 708.463 680.536 711.659 676.692 713.626C672.846 715.592 668.442 716.578 663.481 716.578C655.477 716.578 648.545 713.212 642.688 706.484C636.83 699.755 633.904 690.802 633.904 679.622C633.904 669.159 636.574 660.098 641.918 652.427C647.258 644.759 654.896 640.924 664.822 640.924C670.32 640.924 674.925 642.087 678.637 644.411Z" fill="#4C82C3"/>
<path d="M736.834 706.182C741.082 706.182 745.194 705.197 749.174 703.23C755.881 699.968 759.237 694.624 759.237 687.202V677.476C757.76 678.414 755.86 679.2 753.536 679.825C751.209 680.449 748.928 680.896 746.693 681.166L739.382 682.105C735.002 682.688 731.716 683.601 729.524 684.854C725.814 686.957 723.958 690.309 723.958 694.913C723.958 698.401 725.233 701.153 727.782 703.162C730.33 705.176 733.346 706.182 736.834 706.182ZM753.201 670.501C755.97 670.144 757.826 668.984 758.765 667.014C759.304 665.942 759.572 664.397 759.572 662.388C759.572 658.276 758.106 655.289 755.18 653.433C752.249 651.577 748.057 650.65 742.602 650.65C736.298 650.65 731.826 652.35 729.189 655.748C727.714 657.625 726.753 660.421 726.308 664.129H715.038C715.264 655.277 718.134 649.118 723.657 645.654C729.18 642.189 735.581 640.456 742.87 640.456C751.322 640.456 758.184 642.066 763.46 645.285C768.693 648.505 771.309 653.513 771.309 660.306V701.689C771.309 702.941 771.564 703.948 772.078 704.705C772.593 705.468 773.676 705.846 775.332 705.846C775.868 705.846 776.47 705.813 777.142 705.745C777.813 705.677 778.526 705.58 779.288 705.444V714.364C777.409 714.9 775.978 715.234 774.997 715.37C774.012 715.502 772.673 715.57 770.973 715.57C766.814 715.57 763.796 714.096 761.917 711.144C760.936 709.581 760.244 707.368 759.84 704.505C757.381 707.725 753.846 710.52 749.242 712.889C744.637 715.257 739.561 716.441 734.018 716.441C727.357 716.441 721.912 714.42 717.689 710.374C713.462 706.328 711.35 701.264 711.35 695.181C711.35 688.52 713.429 683.356 717.588 679.689C721.745 676.024 727.2 673.768 733.95 672.917L753.201 670.501Z" fill="#4C82C3"/>
<path d="M793.505 622.147H805.713V642.198H817.181V652.057H805.713V698.939C805.713 701.442 806.562 703.119 808.261 703.969C809.199 704.461 810.763 704.705 812.955 704.705C813.537 704.705 814.162 704.695 814.833 704.67C815.503 704.649 816.286 704.594 817.181 704.505V714.027C815.793 714.431 814.353 714.721 812.854 714.899C811.358 715.078 809.735 715.167 807.993 715.167C802.361 715.167 798.537 713.726 796.525 710.842C794.511 707.958 793.505 704.215 793.505 699.607V652.057H783.781V642.198H793.505V622.147Z" fill="#4C82C3"/>
<path d="M829.253 642.534H841.594V714.028H829.253V642.534ZM829.253 642.534H841.594V714.028H829.253V642.534ZM835.289 629.994C833.815 629.994 832.439 629.815 831.166 629.458C829.891 629.102 828.807 628.584 827.912 627.914C827.019 627.246 826.313 626.463 825.8 625.567C825.285 624.672 825.027 623.69 825.027 622.616C825.027 621.499 825.299 620.448 825.833 619.464C826.369 618.482 827.096 617.632 828.014 616.915C828.931 616.202 830.014 615.64 831.267 615.238C832.516 614.838 833.859 614.634 835.289 614.634C836.721 614.634 838.051 614.838 839.279 615.238C840.511 615.64 841.582 616.202 842.499 616.915C843.416 617.632 844.143 618.482 844.677 619.464C845.216 620.448 845.484 621.499 845.484 622.616C845.484 623.69 845.225 624.672 844.712 625.567C844.197 626.463 843.494 627.246 842.6 627.914C841.704 628.584 840.633 629.102 839.38 629.458C838.128 629.815 836.764 629.994 835.289 629.994Z" fill="#4C82C3"/>
<path d="M909.197 676.941C909.197 670.234 908.123 664.779 905.975 660.574C902.571 653.959 896.704 650.651 888.375 650.651C880.984 650.651 875.609 653.467 872.251 659.101C868.893 664.733 867.216 671.533 867.216 679.489C867.216 687.135 868.893 693.507 872.251 698.605C875.609 703.702 880.94 706.25 888.239 706.25C896.253 706.25 901.752 703.221 904.731 697.161C907.711 691.103 909.197 684.362 909.197 676.941ZM921.808 676.605C921.808 688.185 918.989 697.754 913.356 705.309C907.723 712.865 898.981 716.645 887.133 716.645C877.249 716.645 869.404 713.302 863.592 706.617C857.781 699.934 854.876 690.958 854.876 679.69C854.876 667.617 857.935 658.005 864.064 650.851C870.185 643.698 878.413 640.121 888.744 640.121C897.999 640.121 905.82 643.205 912.217 649.377C918.611 655.545 921.808 664.622 921.808 676.605Z" fill="#4C82C3"/>
<path d="M935.472 642.198H946.941V652.393C950.343 648.191 953.947 645.174 957.755 643.339C961.559 641.506 965.791 640.591 970.448 640.591C980.655 640.591 987.553 644.143 991.133 651.254C993.103 655.145 994.088 660.71 994.088 667.953V714.029H981.748V668.759C981.748 664.375 981.099 660.845 979.803 658.161C977.657 653.691 973.767 651.454 968.133 651.454C965.271 651.454 962.925 651.746 961.091 652.327C957.781 653.31 954.876 655.277 952.373 658.229C950.36 660.599 949.052 663.046 948.449 665.573C947.845 668.101 947.544 671.707 947.544 676.405V714.029H935.472V642.198Z" fill="#4C82C3"/>
<path d="M460.989 308.697C460.42 308.697 459.842 308.587 459.284 308.356L412.834 289.115C411.117 288.404 410.08 286.744 410.081 284.993C410.081 284.427 410.19 283.848 410.421 283.291C411.364 281.013 413.97 279.939 416.246 280.877L462.696 300.119C464.413 300.829 465.45 302.489 465.449 304.24C465.449 304.807 465.34 305.385 465.109 305.943C464.398 307.66 462.737 308.697 460.989 308.697Z" fill="#FDBA11"/>
<path d="M479.398 281.148C478.258 281.148 477.115 280.714 476.246 279.843L441.231 244.83C440.36 243.959 439.924 242.82 439.924 241.678C439.924 240.536 440.36 239.398 441.231 238.526C442.97 236.784 445.796 236.784 447.535 238.526L482.55 273.539C483.42 274.411 483.856 275.55 483.856 276.691C483.856 277.834 483.42 278.972 482.55 279.843C481.68 280.714 480.538 281.148 479.398 281.148Z" fill="#FDBA11"/>
<path d="M506.945 262.748C505.195 262.748 503.535 261.711 502.825 259.993L484.019 214.592C483.789 214.035 483.679 213.456 483.679 212.889C483.678 211.137 484.715 209.479 486.433 208.768C488.702 207.823 491.313 208.903 492.257 211.181L511.062 256.583C511.293 257.14 511.402 257.719 511.402 258.285C511.403 260.036 510.366 261.695 508.649 262.407C508.091 262.637 507.513 262.748 506.945 262.748Z" fill="#FDBA11"/>
<path d="M539.437 256.281C536.974 256.281 534.978 254.286 534.978 251.823V202.731C534.978 200.269 536.974 198.274 539.437 198.274C541.9 198.274 543.896 200.269 543.896 202.731V251.823C543.896 254.286 541.9 256.281 539.437 256.281Z" fill="#FDBA11"/>
<path d="M571.926 262.748C571.359 262.748 570.781 262.637 570.223 262.407C568.506 261.695 567.469 260.036 567.469 258.285C567.469 257.719 567.579 257.14 567.81 256.583L586.731 210.901C587.674 208.629 590.281 207.543 592.555 208.488C594.273 209.199 595.31 210.857 595.31 212.609C595.31 213.176 595.199 213.755 594.969 214.311L576.047 259.993C575.337 261.711 573.678 262.748 571.926 262.748Z" fill="#FDBA11"/>
<path d="M599.475 281.148C598.334 281.148 597.194 280.714 596.323 279.843C595.452 278.972 595.018 277.834 595.018 276.691C595.018 275.55 595.452 274.411 596.323 273.539L631.739 238.123C633.482 236.38 636.302 236.38 638.043 238.123C638.915 238.994 639.348 240.132 639.348 241.275C639.348 242.416 638.915 243.556 638.043 244.427L602.627 279.843C601.756 280.714 600.616 281.148 599.475 281.148Z" fill="#FDBA11"/>
<path d="M617.885 308.701C616.133 308.701 614.474 307.663 613.764 305.946C613.533 305.389 613.422 304.81 613.422 304.243C613.422 302.493 614.46 300.833 616.177 300.122L663.324 280.591C665.608 279.647 668.205 280.73 669.148 283.005C669.378 283.562 669.489 284.138 669.489 284.707C669.489 286.458 668.452 288.118 666.734 288.829L619.588 308.359C619.03 308.59 618.452 308.701 617.885 308.701Z" fill="#FDBA11"/>
<path d="M959.377 340.767H879.601C884.087 344.833 889.013 348.498 893.837 351.549C893.85 351.554 894.123 351.73 894.135 351.739C928.551 373.987 944.666 398.726 942.027 425.271C938.937 456.403 910.427 488.747 857.291 521.409C839.406 532.402 821.605 541.575 807.523 548.31H959.377C978.214 548.31 993.626 532.898 993.626 514.061V375.017C993.626 356.179 978.214 340.767 959.377 340.767Z" fill="#B22D1B"/>
<path d="M933.403 424.41C935.69 401.362 920.897 379.359 889.433 359.016C884.979 356.2 875.503 349.682 867.407 340.767H765.998C747.161 340.767 731.749 356.179 731.749 375.016V514.06C731.749 532.898 747.161 548.31 765.998 548.31H786.718C821.169 533.155 927.707 481.822 933.403 424.41Z" fill="#B22D1B"/>
<path d="M868.006 279.81C867.967 279.824 867.941 279.857 867.902 279.872C867.423 280.052 866.994 280.31 866.614 280.636C866.567 280.676 866.519 280.709 866.475 280.75C866.067 281.129 865.735 281.573 865.498 282.082C865.497 282.085 865.493 282.088 865.491 282.092C865.487 282.1 865.489 282.109 865.485 282.118C865.357 282.4 865.234 282.684 865.169 282.993C865.118 283.225 865.127 283.457 865.117 283.689C865.114 283.737 865.106 283.782 865.106 283.832C865.097 284.4 865.186 284.952 865.391 285.473C865.393 285.477 865.391 285.48 865.393 285.484L873.463 306.118H842.329L850.399 285.484C850.409 285.458 850.403 285.43 850.413 285.406C850.593 284.926 850.674 284.42 850.675 283.901C850.675 283.792 850.659 283.689 850.65 283.58C850.637 283.381 850.649 283.182 850.606 282.984C850.549 282.724 850.438 282.486 850.337 282.246C850.317 282.196 850.323 282.14 850.301 282.092C850.291 282.07 850.271 282.058 850.262 282.037C850.031 281.556 849.715 281.134 849.333 280.77C849.271 280.713 849.206 280.669 849.142 280.614C848.771 280.301 848.355 280.049 847.891 279.873C847.853 279.858 847.826 279.824 847.786 279.81C811.726 267.286 781.922 224.688 779.933 182.836C778.945 161.966 785.479 143.534 798.833 129.529C813.309 114.352 834.258 105.992 857.969 105.992C881.534 105.992 902.483 114.352 916.959 129.529C930.313 143.534 936.847 161.966 935.859 182.836C933.871 224.688 904.066 267.286 868.006 279.81ZM905.937 289.986C906.781 291.609 905.955 292.75 905.118 293.428C902.241 295.749 893.218 296.9 878.866 286.062C895.382 282.849 904.045 286.333 905.937 289.986ZM810.662 293.449C809.825 292.778 809.002 291.633 809.839 290.012C811.209 287.368 816.125 284.806 824.995 284.806C828.382 284.806 832.343 285.178 836.909 286.062C822.567 296.9 813.549 295.776 810.662 293.449ZM944.521 183.258C945.63 159.962 938.27 139.318 923.239 123.558C907.11 106.648 883.933 97.3329 857.827 97.3329C831.87 97.3329 808.695 106.648 792.566 123.558C777.535 139.318 770.175 159.962 771.283 183.258C772.998 219.376 794.091 256.001 822.509 276.185C811.329 276.722 804.786 280.945 802.151 286.034C799.59 290.978 800.834 296.676 805.241 300.218C807.79 302.265 811.493 303.62 816.166 303.62C821.742 303.62 828.705 301.67 836.721 296.69L831.953 308.884C831.43 310.22 831.602 311.725 832.409 312.906C833.215 314.089 834.557 314.797 835.989 314.797H853.895C854.989 323.342 859.621 332.158 867.41 340.773H879.621C872.519 334.364 864.393 325.04 862.634 314.797H879.817C881.249 314.797 882.59 314.089 883.397 312.906C884.203 311.725 884.375 310.22 883.853 308.884L879.087 296.697C887.089 301.657 894.042 303.601 899.613 303.601C904.294 303.601 908.006 302.244 910.561 300.188C914.966 296.645 916.203 290.945 913.639 286.004C910.999 280.921 904.469 276.706 893.321 276.169C921.726 255.981 942.807 219.366 944.521 183.258Z" fill="#B22D1B"/>
</svg>
